<?xml version="1.0" encoding="utf-8"?>
<!-- Generator: Adobe Illustrator 16.0.3, SVG Export Plug-In . SVG Version: 6.00 Build 0)  -->
<!DOCTYPE svg PUBLIC "-//W3C//DTD SVG 1.1//EN" "http://www.w3.org/Graphics/SVG/1.1/DTD/svg11.dtd">
<svg version="1.1" id="Capa_1" xmlns="http://www.w3.org/2000/svg" xmlns:xlink="http://www.w3.org/1999/xlink" x="0px" y="0px"
	 width="189px" height="44px" viewBox="0 0 189 44" enable-background="new 0 0 189 44" xml:space="preserve">
<g>
	<linearGradient id="SVGID_1_" gradientUnits="userSpaceOnUse" x1="73.8291" y1="8.019" x2="88.3828" y2="33.2268">
		<stop  offset="0.1429" style="stop-color:#D3D94A"/>
		<stop  offset="0.4286" style="stop-color:#BED53D"/>
		<stop  offset="0.5567" style="stop-color:#B0CE3A"/>
		<stop  offset="1" style="stop-color:#81AD33"/>
	</linearGradient>
	<path fill-rule="evenodd" clip-rule="evenodd" fill="url(#SVGID_1_)" d="M79.08,15.073c-1.362-2.551-2.725-5.102-4.104-7.684
		c1.094-0.75,2.255-1.205,3.456-1.578c0.448-0.14,0.67-0.034,0.907,0.422c1.343,2.591,2.724,5.159,4.093,7.734
		c0.075,0.143,0.158,0.283,0.325,0.398c0-3.209,0-6.42,0-9.77c1.061,0.25,2.048,0.473,3.028,0.733
		c0.09,0.023,0.178,0.287,0.179,0.441c0.01,1.635,0.003,3.272,0.002,4.908c-0.001,1.496,0,2.991,0.001,4.487
		c0,0.168,0,0.336,0,0.563c-1.905-0.469-3.638-0.142-5.198,1.059c-1.162,0.892-1.939,2.1-2.362,3.573
		c-0.774,2.702,0.213,5.762,2.379,7.433c2.111,1.629,5.402,1.87,8.027-0.727c0.547,1.029,1.088,2.05,1.628,3.062
		c-0.693,0.837-1.887,1.699-2.705,1.949c-0.412-0.768-0.828-1.543-1.311-2.443c-0.022,0.249-0.044,0.372-0.045,0.495
		c-0.001,1.106-0.011,2.214,0.007,3.319c0.005,0.324-0.094,0.458-0.38,0.544c-1.16,0.342-2.327,0.521-3.583,0.28
		c0-0.847,0-1.706,0-2.565c-0.038-0.013-0.075-0.025-0.113-0.037c-0.191,0.347-0.389,0.69-0.575,1.042
		c-0.395,0.741-0.795,1.479-1.169,2.231c-0.152,0.309-0.306,0.387-0.642,0.316c-1.422-0.303-2.696-0.937-3.845-1.884
		c-0.102-0.082-0.188-0.188-0.3-0.3c0.454-0.857,0.899-1.7,1.346-2.544c-0.023-0.031-0.047-0.061-0.07-0.091
		c-0.56,0.351-1.119,0.7-1.678,1.05c-0.609,0.381-1.224,0.752-1.826,1.145c-0.188,0.123-0.31,0.127-0.485-0.04
		c-1.409-1.335-2.381-2.969-2.948-4.957c1.252-0.783,2.499-1.563,3.746-2.341c-0.007-0.042-0.015-0.084-0.021-0.125
		c-0.147,0-0.296-0.001-0.443,0c-1.608,0.009-3.218,0.004-4.826,0.039c-0.385,0.009-0.519-0.153-0.589-0.523
		c-0.337-1.764-0.332-3.517,0.131-5.311c1.059,0,2.132,0,3.205,0c1.075,0,2.152,0,3.229,0c0.015-0.037,0.028-0.072,0.044-0.108
		c-2.098-1.31-4.195-2.62-6.371-3.979c0.278-0.6,0.5-1.241,0.847-1.79c0.51-0.805,1.112-1.541,1.668-2.311
		c0.22-0.305,0.422-0.344,0.752-0.133c2.038,1.306,4.09,2.584,6.139,3.872c0.123,0.077,0.25,0.147,0.376,0.22
		C79.029,15.124,79.055,15.099,79.08,15.073z"/>
	<path fill-rule="evenodd" clip-rule="evenodd" fill="#203C72" d="M19.292,16.103c0,6.422,0,12.754,0,19.143
		c-2.15,0-4.282,0-6.482,0c-0.018-4.145,0.56-8.179,2.008-12.042C15.826,20.516,17.178,18.072,19.292,16.103z"/>
	<path fill-rule="evenodd" clip-rule="evenodd" fill="#203C72" d="M21.237,35.257c0-6.415,0-12.744,0-19.072
		c0.039-0.029,0.076-0.058,0.114-0.087c0.632,0.769,1.314,1.497,1.887,2.315c2.006,2.863,3.135,6.149,3.829,9.633
		c0.437,2.195,0.624,4.419,0.653,6.661c0.002,0.171,0,0.34,0,0.55C25.548,35.257,23.407,35.257,21.237,35.257z"/>
	<path fill-rule="evenodd" clip-rule="evenodd" fill="#203C72" d="M16.925,15.733c-4.458,5.681-5.939,12.314-5.939,19.521
		c-1.701,0-3.382,0-5.086,0c0.269-5.166,1.803-9.793,4.652-13.896C12.229,18.941,14.267,16.998,16.925,15.733z"/>
	<path fill-rule="evenodd" clip-rule="evenodd" fill="#203C72" d="M23.563,15.7c2.444,1.175,4.379,2.879,5.964,5.039
		c2.229,3.036,3.84,6.413,4.545,10.243c0.246,1.337,0.386,2.696,0.571,4.047c0.008,0.056-0.01,0.117-0.019,0.198
		c-1.674,0-3.336,0-5.069,0c-0.02-0.682-0.036-1.371-0.061-2.061c-0.202-5.568-1.502-10.768-4.427-15.413
		C24.634,17.065,24.111,16.444,23.563,15.7z"/>
	<path fill-rule="evenodd" clip-rule="evenodd" fill="#203C72" d="M20.221,42.629c-6.55,0-13.1,0-19.649,0
		c-0.569,0-0.569,0.001-0.571-0.61c-0.003-1.054-0.003-1.053,0.954-1.054c12.97,0,25.94-0.001,38.909-0.001
		c0.661-0.001,0.666-0.001,0.658,0.724c-0.012,1.071,0.146,0.939-0.867,0.939C33.176,42.63,26.698,42.628,20.221,42.629z"/>
	<path fill-rule="evenodd" clip-rule="evenodd" fill="#EA262B" d="M50.292,0.11c0.486,0,0.93,0,1.404,0c0,14.666,0,29.318,0,44
		c-0.463,0-0.916,0-1.404,0C50.292,29.459,50.292,14.808,50.292,0.11z"/>
	<path fill-rule="evenodd" clip-rule="evenodd" fill="#524E4D" d="M123.428,12.439c0,0.268,0,0.467,0,0.667
		c-0.055,0.023-0.092,0.05-0.132,0.054c-0.855,0.087-0.893,0.107-0.897,1.028c-0.012,2.368-0.011,4.736-0.004,7.104
		c0.002,0.972,0.059,1.021,1.018,1.091c0,0.218,0,0.439,0,0.688c-1.286,0-2.573,0-3.893,0c0-0.209,0-0.419,0-0.645
		c0.022-0.013,0.057-0.047,0.096-0.052c0.729-0.08,0.793-0.087,0.804-0.884c0.031-2.145,0.011-4.289-0.073-6.462
		c-0.291,0.679-0.586,1.358-0.875,2.038c-0.635,1.497-1.277,2.99-1.892,4.495c-0.131,0.319-0.329,0.311-0.577,0.33
		c-0.268,0.022-0.369-0.112-0.463-0.354c-0.828-2.135-1.665-4.265-2.501-6.395c-0.055-0.138-0.12-0.268-0.267-0.389
		c0,0.299,0,0.598,0,0.897c0.003,1.901,0,3.802,0.009,5.702c0.004,0.922,0.014,0.923,0.849,1.051c0,0.207,0,0.419,0,0.662
		c-0.98,0-1.962,0-2.967,0c0-0.223,0-0.434,0-0.638c0.032-0.023,0.056-0.051,0.08-0.053c0.899-0.084,0.934-0.116,0.936-1.088
		c0.005-2.274,0.003-4.549,0.003-6.823c0-1.146-0.001-1.146-1.018-1.348c-0.009-0.096-0.022-0.2-0.023-0.304
		c-0.001-0.106,0.009-0.213,0.018-0.372c1.071,0,2.131-0.009,3.188,0.016c0.098,0.002,0.226,0.207,0.281,0.345
		c0.789,1.968,1.567,3.94,2.349,5.911c0.049,0.123,0.105,0.244,0.198,0.457c0.166-0.391,0.305-0.703,0.432-1.021
		c0.721-1.797,1.435-3.596,2.163-5.389c0.052-0.128,0.19-0.303,0.292-0.305C121.506,12.43,122.45,12.439,123.428,12.439z"/>
	<path fill-rule="evenodd" clip-rule="evenodd" fill="#524E4D" d="M144.654,35.035c0,1.07-0.011,2.143,0.008,3.214
		c0.005,0.289,0.067,0.654,0.428,0.64c0.522-0.021,0.565,0.262,0.451,0.757c-0.641,0-1.296,0-1.952,0c-0.659,0-1.317,0-2.007,0
		c0-0.235,0-0.444,0-0.663c0.014-0.013,0.035-0.048,0.059-0.049c0.896-0.043,0.956-0.159,0.954-1.168
		c-0.004-2.291-0.002-4.581-0.002-6.87c-0.002-1.084-0.005-1.087-1.004-1.207c0-0.215,0-0.435,0-0.701
		c1.135,0,2.267-0.014,3.397,0.003c0.867,0.014,1.758-0.063,2.596,0.124c1.461,0.33,1.782,1.432,1.743,2.75
		c-0.041,1.369-0.674,2.263-1.839,2.83c0.548,0.831,1.074,1.636,1.607,2.435c0.26,0.392,0.553,0.76,0.795,1.161
		c0.28,0.465,0.653,0.68,1.195,0.614c0,0.247,0,0.468,0,0.737c-0.939,0-1.884,0.008-2.827-0.011c-0.09-0.002-0.2-0.144-0.262-0.248
		c-0.756-1.284-1.523-2.562-2.243-3.869C145.491,35.042,145.195,34.846,144.654,35.035z M144.669,34.232
		c0.363-0.048,0.698-0.051,1.012-0.141c1.136-0.324,1.566-1.343,1.512-2.482c-0.04-0.812-0.282-1.487-1.074-1.706
		c-0.46-0.126-0.946-0.14-1.449-0.209C144.669,31.244,144.669,32.702,144.669,34.232z"/>
	<path fill-rule="evenodd" clip-rule="evenodd" fill="#203C72" d="M36.501,35.214c-0.805-8.253-3.618-15.281-10.019-20.085
		c7.122,2.809,12.861,11.269,12.896,20.085C38.427,35.214,37.475,35.214,36.501,35.214z"/>
	<path fill-rule="evenodd" clip-rule="evenodd" fill="#203C72" d="M4.021,35.239c-0.97,0-1.9,0-2.909,0
		c0.074-3.576,0.932-6.903,2.502-10.008c2.388-4.725,5.906-8.098,10.492-10.165C7.629,19.945,4.828,26.986,4.021,35.239z"/>
	<path fill-rule="evenodd" clip-rule="evenodd" fill="#524E4D" d="M175.941,12.158c1.092-0.077,2.177,0.224,3.132,1.011
		c1.084,0.894,1.617,2.139,1.752,3.555c0.136,1.412,0.089,2.828-0.578,4.124c-0.831,1.615-2.12,2.437-3.801,2.521
		c-0.84,0.042-1.683,0.063-2.504-0.255c-1.576-0.606-2.545-1.813-2.911-3.549c-0.325-1.555-0.324-3.124,0.32-4.606
		c0.822-1.892,2.256-2.761,4.153-2.801C175.619,12.155,175.733,12.158,175.941,12.158z M178.625,17.803
		c0.018-1.063-0.058-2.111-0.432-3.108c-0.452-1.211-1.181-1.718-2.44-1.708c-1.073,0.008-1.857,0.578-2.228,1.757
		c-0.642,2.047-0.634,4.12,0.04,6.152c0.296,0.892,0.993,1.749,2.47,1.661c1.001-0.058,1.777-0.653,2.161-1.742
		C178.539,19.842,178.644,18.834,178.625,17.803z"/>
	<path fill-rule="evenodd" clip-rule="evenodd" fill="#524E4D" d="M168.381,28.704c1.174-0.063,2.317,0.273,3.293,1.181
		c0.929,0.864,1.408,1.991,1.545,3.277c0.171,1.614,0.104,3.202-0.77,4.619c-0.827,1.346-2.016,2.04-3.483,2.133
		c-0.867,0.055-1.743,0.081-2.592-0.239c-1.427-0.54-2.393-1.591-2.816-3.142c-0.477-1.743-0.485-3.507,0.277-5.177
		c0.815-1.79,2.227-2.583,4.025-2.651C168.004,28.698,168.146,28.704,168.381,28.704z M171.125,34.322
		c-0.116-0.855-0.189-1.722-0.358-2.565c-0.155-0.771-0.507-1.476-1.171-1.875c-1.237-0.744-3.14-0.511-3.725,1.59
		c-0.542,1.948-0.547,3.916,0.07,5.854c0.364,1.144,1.157,1.763,2.174,1.771c1.323,0.012,2.045-0.497,2.496-1.745
		C170.962,36.38,171.06,35.368,171.125,34.322z"/>
	<path fill-rule="evenodd" clip-rule="evenodd" fill="#524E4D" d="M159.661,36.845c0-2.219-0.002-4.407,0.001-6.596
		c0.001-0.347-0.214-0.45-0.463-0.507c-0.164-0.036-0.338-0.028-0.535-0.043c0-0.237,0-0.445,0-0.685c1.03,0,2.058,0,3.114,0
		c0,0.205,0,0.416,0,0.634c-0.013,0.012-0.033,0.047-0.057,0.049c-0.757,0.064-0.961-0.043-0.956,1.222
		c0.011,2.787,0.004,5.575,0.004,8.362c0,0.168,0,0.334,0,0.554c-0.471,0-0.9,0.026-1.323-0.016
		c-0.136-0.015-0.284-0.187-0.378-0.325c-1.529-2.254-3.05-4.514-4.573-6.772c-0.176-0.26-0.355-0.517-0.593-0.86
		c-0.011,0.232-0.022,0.363-0.022,0.494c-0.002,1.355-0.011,2.71,0.002,4.064c0.006,0.651,0.06,1.304,0.08,1.955
		c0.011,0.36,0.227,0.476,0.5,0.521c0.153,0.025,0.312,0.02,0.501,0.029c0,0.235,0,0.444,0,0.688c-1.025,0-2.063,0-3.128,0
		c0-0.212,0-0.423,0-0.629c0.028-0.021,0.05-0.05,0.075-0.053c0.924-0.122,0.936-0.122,0.938-1.123
		c0.008-2.384,0.005-4.767,0.001-7.149c-0.002-0.799-0.064-0.863-0.795-0.938c-0.069-0.007-0.137-0.026-0.223-0.043
		c0-0.23,0-0.439,0-0.69c0.806,0,1.592-0.013,2.377,0.013c0.12,0.004,0.265,0.158,0.349,0.28c1.616,2.396,3.227,4.797,4.838,7.196
		C159.48,36.601,159.571,36.72,159.661,36.845z"/>
	<path fill-rule="evenodd" clip-rule="evenodd" fill="#524E4D" d="M119.568,36.925c0-2.088,0.003-4.05-0.005-6.011
		c-0.001-0.262-0.004-0.549-0.102-0.775c-0.075-0.175-0.287-0.305-0.464-0.392c-0.133-0.066-0.308-0.032-0.51-0.046
		c-0.011-0.222-0.021-0.432-0.033-0.681c1.067,0,2.105,0,3.163,0c0,0.221,0,0.432,0,0.63c-0.045,0.027-0.068,0.053-0.094,0.056
		c-0.911,0.106-0.926,0.122-0.926,1.146c-0.001,2.805,0.001,5.607,0.001,8.411c0,0.168,0,0.336,0,0.569
		c-0.468,0-0.909,0.026-1.346-0.017c-0.131-0.013-0.272-0.194-0.366-0.335c-1.512-2.229-3.016-4.466-4.521-6.699
		c-0.19-0.281-0.385-0.559-0.659-0.807c0,0.522-0.006,1.045,0.001,1.567c0.021,1.523,0.045,3.047,0.074,4.571
		c0.013,0.647,0.119,0.754,0.74,0.793c0.083,0.007,0.167,0.021,0.274,0.033c0,0.229,0,0.439,0,0.678c-1.042,0-2.08,0-3.138,0
		c0-0.23,0-0.44,0-0.639c0.046-0.026,0.069-0.051,0.096-0.053c0.877-0.08,0.917-0.112,0.921-1.045
		c0.008-2.414,0.007-4.828,0.002-7.241c0-0.779-0.083-0.864-0.809-0.922c-0.057-0.005-0.112-0.018-0.199-0.03
		c0-0.215,0-0.425,0-0.699c0.801,0,1.613-0.01,2.427,0.011c0.094,0.003,0.204,0.147,0.274,0.252c1.649,2.448,3.294,4.9,4.939,7.352
		C119.366,36.687,119.436,36.761,119.568,36.925z"/>
	<path fill-rule="evenodd" clip-rule="evenodd" fill="#524E4D" d="M124.433,12.437c1.291,0,2.566-0.007,3.841,0.003
		c0.695,0.006,1.407-0.051,2.083,0.085c1.209,0.242,1.831,1.132,1.876,2.464c0.084,2.533-1.269,3.596-3.303,3.794
		c-0.453,0.044-0.914,0.006-1.438,0.006c0,0.669,0,1.3,0,1.932c0,0.094,0.003,0.188,0.002,0.28
		c-0.009,1.352,0.047,1.295,1.182,1.393c0,0.207,0,0.418,0,0.702c-0.695,0-1.406,0-2.118,0c-0.7,0-1.402,0-2.132,0
		c0-0.242,0-0.452,0-0.665c0.02-0.017,0.04-0.048,0.063-0.051c0.943-0.112,0.948-0.117,0.948-1.172
		c0.001-2.273,0.002-4.547,0.002-6.821c-0.001-1.097-0.003-1.097-1.007-1.261C124.433,12.925,124.433,12.716,124.433,12.437z
		 M127.513,18.053c0.274-0.031,0.513-0.063,0.751-0.083c0.806-0.069,1.401-0.495,1.635-1.33c0.147-0.521,0.205-1.102,0.17-1.644
		c-0.045-0.678-0.293-1.342-0.949-1.579c-0.498-0.179-1.047-0.192-1.606-0.286C127.513,14.819,127.513,16.398,127.513,18.053z"/>
	<path fill-rule="evenodd" clip-rule="evenodd" fill="#203C72" d="M27.479,36.719c0.072-0.869,0.072-0.869,0.842-0.869
		c0.288,0.001,0.575,0.017,0.862-0.003c0.389-0.029,0.62,0.088,0.552,0.57c-0.013,0.089,0.008,0.184,0.017,0.305
		c1.538,0,3.066,0,4.59,0c0.02-0.037,0.044-0.063,0.046-0.088c0.05-0.79,0.049-0.79,0.781-0.79c0.302,0,0.605,0.023,0.905-0.006
		c0.431-0.043,0.624,0.13,0.56,0.608c-0.01,0.075,0.007,0.154,0.014,0.291c1.271,0,2.541,0,3.793,0
		c0.158,0.699,0.12,0.753-0.479,0.753c-13.141,0-26.282,0-39.423,0c-0.565,0-0.594-0.039-0.479-0.726c1.248,0,2.506,0,3.732,0
		c0.047-0.07,0.076-0.092,0.078-0.117c0.062-0.825,0.062-0.825,0.846-0.825c0.288,0.001,0.576,0.024,0.861-0.003
		c0.416-0.039,0.593,0.139,0.54,0.591c-0.01,0.091,0.01,0.184,0.018,0.309c1.537,0,3.066,0,4.593,0
		c0.017-0.031,0.042-0.057,0.042-0.082c0.046-0.812,0.046-0.812,0.818-0.812c0.288,0,0.577,0.022,0.862-0.006
		c0.432-0.041,0.623,0.135,0.563,0.611c-0.011,0.087,0.013,0.18,0.022,0.294c2.035,0,4.052,0,6.065,0
		c0.123-0.899,0.123-0.899,0.998-0.899c0.245,0,0.49,0.019,0.732-0.004c0.411-0.04,0.595,0.136,0.543,0.589
		c-0.011,0.091,0.011,0.184,0.02,0.309C23.416,36.719,25.433,36.719,27.479,36.719z"/>
	<path fill-rule="evenodd" clip-rule="evenodd" fill="#524E4D" d="M139.782,13.106c0-0.193,0-0.402,0-0.642c1.062,0,2.116,0,3.198,0
		c0,0.223,0,0.431,0,0.627c-0.045,0.029-0.067,0.058-0.093,0.059c-1.119,0.073-0.916,0.237-0.969,1.308
		c-0.086,1.755,0.008,3.519-0.039,5.278c-0.027,1.057-0.309,2.046-1.069,2.801c-0.462,0.457-1.013,0.722-1.616,0.784
		c-1.04,0.109-2.085,0.172-3.082-0.292c-1.392-0.646-1.912-1.913-1.959-3.432c-0.053-1.742-0.014-3.488-0.017-5.232
		c0-0.154-0.021-0.309-0.025-0.464c-0.015-0.528-0.275-0.741-0.746-0.728c-0.527,0.015-0.256-0.416-0.361-0.703
		c1.457,0,2.856,0,4.29,0c0,0.206,0,0.426,0,0.647c-0.03,0.017-0.054,0.04-0.079,0.042c-0.889,0.08-0.928,0.121-0.928,1.094
		c0,1.853-0.021,3.707,0.018,5.559c0.012,0.546,0.143,1.107,0.311,1.625c0.232,0.712,0.771,1.063,1.458,1.099
		c0.383,0.019,0.783,0.033,1.152-0.061c0.884-0.224,1.498-1.029,1.539-2.162c0.075-2.111,0.08-4.229,0.088-6.343
		c0.002-0.636-0.157-0.76-0.752-0.794c-0.072-0.003-0.143-0.007-0.214-0.017C139.86,13.158,139.837,13.136,139.782,13.106z"/>
	<path fill-rule="evenodd" clip-rule="evenodd" fill="#524E4D" d="M143.816,13.118c0-0.206,0-0.417,0-0.656c2.414,0,4.82,0,7.259,0
		c0,0.602,0,1.198,0,1.82c-0.357,0-0.693,0-1.076,0c0-0.152-0.004-0.288,0-0.423c0.012-0.404-0.155-0.587-0.54-0.597
		c-0.81-0.02-1.621-0.072-2.457-0.112c0,1.355,0,2.626,0,3.979c0.699-0.035,1.396-0.036,2.082-0.135
		c0.131-0.02,0.213-0.426,0.341-0.704c0.15,0,0.374,0,0.63,0c0,0.758,0,1.511,0,2.29c-0.232,0-0.456,0-0.727,0
		c0.096-1.09-0.726-0.667-1.193-0.795c-0.349-0.096-0.738-0.02-1.174-0.02c0,0.226-0.001,0.422,0,0.616
		c0.003,1.044,0,2.088,0.011,3.131c0.007,0.698,0.063,0.753,0.688,0.755c0.655,0.001,1.31,0.001,1.964-0.003
		c0.584-0.003,0.604-0.024,0.642-0.648c0.006-0.107,0.017-0.215,0.027-0.357c0.345,0,0.683,0,1.051,0c0,0.584,0,1.18,0,1.807
		c-2.496,0-4.988,0-7.515,0c0-0.213,0-0.434,0-0.652c1.003-0.191,1.004-0.191,1.005-1.328c0-2.213,0-4.424,0-6.637
		C144.833,13.315,144.832,13.315,143.816,13.118z"/>
	<path fill-rule="evenodd" clip-rule="evenodd" fill="#524E4D" d="M136.116,34.318c0,1.366-0.002,2.673,0.002,3.978
		c0.002,0.354,0.156,0.534,0.508,0.526c0.711-0.016,1.423-0.001,2.134-0.007c0.591-0.002,0.607-0.024,0.645-0.69
		c0.005-0.092,0.014-0.185,0.024-0.313c0.34,0,0.676,0,1.083,0c0,0.289,0,0.594,0,0.896c0,0.294,0,0.586,0,0.909
		c-2.537,0-5.04,0-7.557,0c0-0.232,0-0.443,0-0.642c0.046-0.025,0.07-0.048,0.096-0.05c0.873-0.076,0.919-0.13,0.919-1.103
		c0.001-2.274,0.003-4.547,0.003-6.82c-0.001-1.317-0.023-1.147-1.016-1.341c0-0.205,0-0.414,0-0.651c2.417,0,4.821,0,7.257,0
		c0,0.604,0,1.2,0,1.822c-0.357,0-0.694,0-1.026,0c-0.143-0.95-0.141-0.976-1.101-1.085c-0.511-0.06-1.033-0.014-1.551-0.015
		c-0.124,0-0.249,0-0.396,0c0,1.317,0,2.588,0,3.947c0.699-0.036,1.396-0.037,2.081-0.136c0.131-0.019,0.215-0.423,0.345-0.701
		c0.148,0,0.373,0,0.627,0c0,0.754,0,1.508,0,2.287c-0.23,0-0.453,0-0.729,0c0.109-1.125-0.738-0.646-1.196-0.793
		C136.926,34.23,136.531,34.318,136.116,34.318z"/>
	<path fill-rule="evenodd" clip-rule="evenodd" fill="#524E4D" d="M158.771,12.556c0,0.747,0,1.445,0,2.182
		c-0.339,0-0.676,0-1.046,0c-0.015-0.103-0.039-0.22-0.046-0.339c-0.039-0.837-0.396-1.318-1.046-1.403
		c-0.914-0.119-1.591,0.296-1.805,1.106c-0.188,0.719-0.044,1.277,0.539,1.707c0.769,0.567,1.581,1.063,2.357,1.618
		c0.616,0.438,1.242,0.91,1.455,1.722c0.5,1.906-0.235,3.642-2.34,4.117c-1.351,0.306-2.703,0.113-4.051-0.317
		c0-0.698,0-1.409,0-2.156c0.331,0,0.668,0,1.031,0c0.015,0.072,0.05,0.16,0.045,0.245c-0.055,1.051,0.696,1.464,1.46,1.501
		c1.182,0.06,1.757-0.381,1.962-1.513c0.126-0.694-0.063-1.314-0.625-1.712c-0.681-0.485-1.408-0.896-2.088-1.384
		c-0.392-0.281-0.755-0.622-1.079-0.988c-1.334-1.504-0.677-3.877,1.094-4.573c0.851-0.333,1.729-0.243,2.596-0.162
		C157.706,12.255,158.218,12.43,158.771,12.556z"/>
	<path fill-rule="evenodd" clip-rule="evenodd" fill="#524E4D" d="M182.442,20.773c0.357,0,0.685,0,1.032,0
		c0.019,0.097,0.054,0.187,0.047,0.272c-0.066,1.028,0.68,1.442,1.421,1.491c1.193,0.078,1.758-0.349,1.988-1.475
		c0.143-0.697-0.035-1.318-0.587-1.722c-0.688-0.503-1.427-0.924-2.122-1.413c-0.335-0.234-0.644-0.522-0.931-0.824
		c-0.751-0.786-1.026-1.729-0.724-2.837c0.304-1.11,1.028-1.759,2.024-1.997c1.165-0.279,2.335-0.132,3.482,0.205
		c0.108,0.032,0.217,0.065,0.346,0.104c0,0.711,0,1.421,0,2.165c-0.344,0-0.681,0-1.042,0c-0.015-0.103-0.039-0.206-0.043-0.309
		c-0.034-0.843-0.38-1.332-1.02-1.435c-0.866-0.141-1.568,0.257-1.814,1.029c-0.227,0.709-0.083,1.333,0.496,1.763
		c0.732,0.543,1.507,1.019,2.256,1.538c0.276,0.191,0.536,0.414,0.793,0.637c0.967,0.841,1.114,1.966,0.816,3.161
		c-0.313,1.255-1.223,1.868-2.328,2.143c-0.886,0.221-2.52,0.206-4.092-0.324C182.442,22.244,182.442,21.533,182.442,20.773z"/>
	<path fill-rule="evenodd" clip-rule="evenodd" fill="#524E4D" d="M180.836,29.136c0,0.719,0,1.429,0,2.163
		c-0.357,0-0.695,0-1.058,0c-0.013-0.118-0.029-0.222-0.033-0.327c-0.028-0.845-0.373-1.327-1.021-1.422
		c-0.912-0.133-1.589,0.266-1.821,1.074c-0.206,0.718-0.052,1.313,0.543,1.748c0.783,0.572,1.608,1.076,2.397,1.639
		c0.626,0.448,1.248,0.941,1.438,1.784c0.439,1.95-0.34,3.543-2.338,4.016c-1.36,0.321-2.728,0.127-4.086-0.315
		c0-0.701,0-1.411,0-2.154c0.339,0,0.676,0,1.041,0c0.013,0.08,0.033,0.166,0.037,0.254c0.043,0.875,0.297,1.261,1.078,1.438
		c1.133,0.255,2.067-0.047,2.337-1.411c0.137-0.692-0.034-1.32-0.587-1.724c-0.734-0.537-1.515-1-2.261-1.521
		c-0.287-0.2-0.546-0.454-0.792-0.713c-0.76-0.803-1.039-1.761-0.723-2.882c0.311-1.102,1.047-1.738,2.045-1.968
		c1.152-0.266,2.306-0.127,3.438,0.202C180.592,29.052,180.71,29.095,180.836,29.136z"/>
	<path fill-rule="evenodd" clip-rule="evenodd" fill="#87C042" d="M72.331,34.031c-0.478,0.303-0.991,0.63-1.507,0.955
		c-0.99,0.625-1.978,1.254-2.977,1.862c-0.115,0.071-0.359,0.091-0.434,0.012c-1.315-1.401-2.422-2.979-3.285-4.75
		c-0.012-0.024-0.002-0.061-0.002-0.123c1.655-1.032,3.324-2.072,4.942-3.082c0.489,0.953,0.894,1.9,1.434,2.748
		C71.035,32.489,71.701,33.224,72.331,34.031z"/>
	<path fill-rule="evenodd" clip-rule="evenodd" fill="#524E4D" d="M131.979,29.021c0,0.16,0,0.283,0,0.407c0,0.544,0,1.088,0,1.672
		c-0.339,0-0.659,0-0.991,0c-0.036-0.219-0.104-0.442-0.104-0.666c0.002-0.508-0.264-0.617-0.664-0.626
		c-0.57-0.014-1.139-0.069-1.746-0.107c-0.013,0.188-0.031,0.321-0.031,0.454c0,2.538-0.004,5.077,0.006,7.615
		c0.003,1.055,0.096,1.162,0.999,1.145c0.054-0.002,0.108,0.019,0.185,0.033c0,0.224,0,0.435,0,0.672c-1.507,0-3.007,0-4.527,0
		c0-0.229,0-0.44,0-0.645c0.035-0.023,0.059-0.052,0.083-0.054c1.084-0.097,1.105-0.12,1.105-1.311
		c0.001-2.43,0.003-4.859,0.003-7.288c0-0.171,0-0.342,0-0.622c-0.734,0.048-1.441,0.08-2.142,0.156
		c-0.104,0.012-0.236,0.214-0.272,0.353c-0.072,0.279-0.088,0.576-0.131,0.898c-0.302,0-0.623,0-0.97,0c0-0.693,0-1.373,0-2.087
		C125.83,29.021,128.878,29.021,131.979,29.021z"/>
	<path fill-rule="evenodd" clip-rule="evenodd" fill="#524E4D" d="M167.305,22.387c0.008,0.115,0.019,0.206,0.021,0.295
		c0.004,0.121,0.001,0.243,0.001,0.389c-1.532,0-3.032,0-4.551,0c0-0.234,0-0.445,0-0.648c0.038-0.023,0.062-0.051,0.087-0.052
		c1.059-0.072,1.104-0.124,1.104-1.263c0-2.614,0-5.23,0-7.964c-0.74,0.057-1.462,0.078-2.171,0.193
		c-0.136,0.022-0.249,0.401-0.318,0.634c-0.05,0.168-0.011,0.367-0.011,0.585c-0.349,0-0.669,0-1.013,0c0-0.692,0-1.371,0-2.084
		c3.052,0,6.1,0,9.175,0c0,0.686,0,1.364,0,2.079c-0.316,0-0.637,0-0.968,0c-0.038-0.232-0.108-0.471-0.112-0.709
		c-0.006-0.462-0.243-0.567-0.611-0.579c-0.585-0.018-1.168-0.07-1.822-0.112c0,0.226,0,0.389,0,0.552c0,2.445,0.002,4.89,0,7.334
		C166.112,22.576,166.312,22.296,167.305,22.387z"/>
	<path fill-rule="evenodd" clip-rule="evenodd" fill="#97C841" d="M72.644,40.837c1.039-1.949,2.066-3.877,3.111-5.838
		c1.424,1.099,2.934,1.801,4.658,2.089c-0.267,0.521-0.511,1.005-0.764,1.484c-0.646,1.228-1.291,2.456-1.956,3.671
		c-0.073,0.136-0.292,0.295-0.413,0.269c-1.531-0.321-3.016-0.812-4.431-1.533C72.789,40.946,72.734,40.898,72.644,40.837z"/>
	<path fill-rule="evenodd" clip-rule="evenodd" fill="#72BA44" d="M66.798,25.188c-1.61,0-3.18,0-4.78,0
		c-0.258-1.927-0.249-3.842-0.014-5.792c1.587,0,3.173,0,4.793,0C66.386,21.319,66.393,23.234,66.798,25.188z"/>
	<path fill-rule="evenodd" clip-rule="evenodd" fill="#524E4D" d="M110.593,22.4c0,0.229,0,0.429,0,0.663c-1.389,0-2.773,0-4.187,0
		c0-0.209,0-0.419,0-0.639c0.013-0.013,0.032-0.047,0.056-0.05c0.956-0.111,0.958-0.111,0.959-1.149c0-2.256,0-4.513,0-6.77
		c-0.001-1.141-0.002-1.141-1.018-1.33c0-0.207,0-0.418,0-0.66c1.384,0,2.768,0,4.175,0c0,0.225,0,0.434,0,0.636
		c-0.036,0.024-0.058,0.051-0.083,0.054c-0.899,0.103-0.929,0.132-0.93,1.142c-0.003,2.288-0.001,4.576,0,6.864
		C109.565,22.265,109.566,22.265,110.593,22.4z"/>
	<path fill-rule="evenodd" clip-rule="evenodd" fill="#524E4D" d="M110.583,38.973c0,0.204,0,0.413,0,0.649
		c-1.394,0-2.768,0-4.174,0c0-0.218,0-0.438,0-0.652c0.04-0.022,0.063-0.046,0.089-0.048c0.885-0.078,0.92-0.114,0.921-1.1
		c0.002-2.258,0.002-4.517,0.002-6.775c0-1.168,0-1.168-1.021-1.383c0-0.205,0-0.415,0-0.652c1.395,0,2.779,0,4.182,0
		c0,0.232,0,0.441,0,0.645c-1.014,0.233-1.016,0.233-1.018,1.388c-0.001,2.181-0.001,4.362,0,6.542
		C109.565,38.745,109.566,38.745,110.583,38.973z"/>
	<path fill-rule="evenodd" clip-rule="evenodd" fill="#9FCB41" d="M83.421,42.623c0-2.182,0-4.32,0-6.383
		c1.323-0.183,2.604-0.359,3.938-0.542c0.002,0.031,0.021,0.191,0.021,0.353c0.007,1.71,0.003,3.423,0.022,5.134
		c0.004,0.319-0.085,0.49-0.369,0.566c-1.065,0.286-2.129,0.584-3.195,0.867C83.718,42.651,83.583,42.623,83.421,42.623z"/>
	<path fill-rule="evenodd" clip-rule="evenodd" fill="#E1E234" d="M90.397,15.535c-0.696-0.482-1.381-0.953-2.1-1.449
		c1.388-2.625,2.788-5.276,4.228-8c0.25,0.213,0.489,0.396,0.706,0.606c0.342,0.33,0.687,0.662,0.993,1.029
		c0.091,0.108,0.138,0.382,0.075,0.501c-1.26,2.403-2.538,4.796-3.814,7.189C90.459,15.462,90.419,15.506,90.397,15.535z"/>
	<path fill-rule="evenodd" clip-rule="evenodd" fill="#B2D13F" d="M92.284,38.779c-0.989-1.871-1.907-3.605-2.802-5.298
		c0.889-0.694,1.742-1.361,2.636-2.06c0.433,0.805,0.898,1.67,1.363,2.537c0.367,0.685,0.736,1.369,1.089,2.063
		c0.056,0.108,0.089,0.333,0.031,0.393C93.855,37.198,93.091,37.963,92.284,38.779z"/>
	<path fill-rule="evenodd" clip-rule="evenodd" fill="#72BA44" d="M67.236,14.048c-0.063-0.031-0.143-0.064-0.215-0.108
		c-0.917-0.575-1.834-1.15-2.827-1.773c0.471-0.755,0.899-1.502,1.386-2.203c0.464-0.669,0.979-1.296,1.496-1.921
		c0.083-0.102,0.326-0.177,0.422-0.12c0.896,0.542,1.778,1.115,2.67,1.683c-0.548,0.727-1.112,1.406-1.6,2.145
		C68.088,12.479,67.684,13.268,67.236,14.048z"/>
	<path fill-rule="evenodd" clip-rule="evenodd" fill="#203C72" d="M20.151,3.501c-0.86-0.111-0.86-0.111-0.75-0.448
		c0.225,0.097,0.454,0.197,0.807,0.35c-0.044-0.538-0.085-0.93-0.104-1.322c-0.006-0.125,0.041-0.256,0.079-0.377
		c0.005-0.017,0.149-0.013,0.154,0.007c0.037,0.124,0.076,0.255,0.07,0.382c-0.019,0.38-0.057,0.759-0.101,1.302
		c0.327-0.159,0.537-0.262,0.78-0.379c0.012,0.119,0.026,0.254,0.046,0.44c-0.276,0-0.514,0-0.768,0c0,0.164,0,0.282,0,0.436
		c1.735,0.305,2.699,1.403,2.857,3.374c-1.99,0-3.918,0-5.847,0c-0.207-1.421,0.874-2.936,2.31-3.253
		C20.166,3.907,20.166,3.907,20.151,3.501z"/>
	<path fill-rule="evenodd" clip-rule="evenodd" fill="#CEDB3C" d="M97.841,13.104c0.298,0.761,0.575,1.468,0.864,2.206
		c-1.854,1.156-3.661,2.286-5.47,3.414c-0.341-0.704-0.664-1.374-1.009-2.086C94.074,15.475,95.929,14.307,97.841,13.104z"/>
	<path fill-rule="evenodd" clip-rule="evenodd" fill="#C1D63E" d="M97.76,31.631c-1.603-1.012-3.11-1.964-4.623-2.918
		c0.385-0.806,0.755-1.585,1.155-2.425c0.54,0.33,1.097,0.666,1.65,1.009c0.82,0.508,1.634,1.03,2.46,1.527
		c0.26,0.155,0.35,0.312,0.217,0.627C98.325,30.153,98.059,30.869,97.76,31.631z"/>
	<path fill-rule="evenodd" clip-rule="evenodd" fill="#C5D73D" d="M94.283,23.462c0-0.814,0-1.567,0-2.354
		c0.121-0.01,0.247-0.029,0.373-0.029c1.566-0.005,3.132,0.004,4.697-0.019c0.351-0.006,0.459,0.141,0.455,0.484
		c-0.007,0.498,0.005,0.997-0.002,1.495c-0.004,0.223-0.025,0.429-0.324,0.427C97.76,23.457,96.038,23.462,94.283,23.462z"/>
	<path fill-rule="evenodd" clip-rule="evenodd" fill="#72BA44" d="M73.912,5.417c-0.303-0.563-0.646-1.203-1.04-1.936
		c0.928-0.355,1.804-0.706,2.691-1.022c0.431-0.154,0.88-0.254,1.324-0.353c0.098-0.021,0.272,0.031,0.318,0.112
		c0.306,0.539,0.587,1.096,0.859,1.616C76.69,4.357,75.341,4.872,73.912,5.417z"/>
	<path fill-rule="evenodd" clip-rule="evenodd" fill="#BED53D" d="M90.081,26.816c0.436-0.813,0.849-1.584,1.279-2.391
		c0.563,0.351,1.17,0.719,1.764,1.111c0.071,0.047,0.129,0.253,0.093,0.332c-0.303,0.666-0.618,1.324-0.959,1.967
		c-0.046,0.087-0.284,0.15-0.371,0.101C91.27,27.577,90.667,27.186,90.081,26.816z"/>
	<path fill-rule="evenodd" clip-rule="evenodd" fill="#203C72" d="M18.967,10.987c0,0.639-0.01,1.278,0.004,1.916
		c0.007,0.328-0.076,0.486-0.411,0.474c-0.913-0.034-0.869,0.16-0.869-0.913c0-1.106,0.015-2.212-0.006-3.317
		c-0.009-0.434,0.128-0.568,0.523-0.553c0.757,0.028,0.758,0.006,0.758,0.806C18.967,9.929,18.967,10.458,18.967,10.987z"/>
	<path fill-rule="evenodd" clip-rule="evenodd" fill="#203C72" d="M19.659,8.726c0.06-0.072,0.069-0.092,0.08-0.093
		c1.103-0.172,1.127-0.149,1.126,1.048c0,1.09-0.013,2.18,0.004,3.27c0.004,0.333-0.101,0.435-0.397,0.427
		c-0.979-0.028-0.799,0.115-0.811-0.85c-0.013-1.121-0.002-2.243-0.002-3.364C19.659,8.997,19.659,8.83,19.659,8.726z"/>
	<path fill-rule="evenodd" clip-rule="evenodd" fill="#203C72" d="M22.761,13.286c-0.086,0.044-0.11,0.066-0.136,0.069
		c-1.072,0.127-1.071,0.127-1.07-1.018c0-1.089,0.013-2.179-0.007-3.268c-0.007-0.376,0.111-0.484,0.446-0.474
		c0.86,0.029,0.764-0.107,0.766,0.816C22.763,10.702,22.761,11.992,22.761,13.286z"/>
	<path fill-rule="evenodd" clip-rule="evenodd" fill="#203C72" d="M11.899,38.15c1.11,0,1.114,0,1.112,1.199
		c-0.003,1.307,0.179,1.208-1.093,1.206c-1.306-0.002-1.129,0.113-1.136-1.212C10.777,38.15,10.782,38.15,11.899,38.15z"/>
	<path fill-rule="evenodd" clip-rule="evenodd" fill="#203C72" d="M21.374,39.351c-0.006,1.302,0.158,1.208-1.098,1.207
		c-1.297-0.003-1.126,0.116-1.132-1.216c-0.005-1.191-0.001-1.191,1.119-1.191C21.373,38.15,21.373,38.15,21.374,39.351z"/>
	<path fill-rule="evenodd" clip-rule="evenodd" fill="#203C72" d="M28.635,38.15c1.1,0,1.101,0,1.1,1.213
		c-0.001,1.334,0.114,1.188-1.112,1.19c-1.259,0.001-1.111,0.144-1.118-1.175C27.499,38.15,27.502,38.15,28.635,38.15z"/>
	<path fill-rule="evenodd" clip-rule="evenodd" fill="#203C72" d="M35.535,38.15c1.099,0,1.103,0,1.098,1.172
		c-0.004,1.366,0.16,1.233-1.156,1.236c-1.262,0.002-1.064,0.069-1.073-1.187C34.393,38.15,34.399,38.15,35.535,38.15z"/>
	<path fill-rule="evenodd" clip-rule="evenodd" fill="#203C72" d="M5.021,38.15c1.092-0.001,1.099-0.001,1.092,1.165
		c-0.007,1.371,0.196,1.234-1.134,1.243c-1.287,0.009-1.085,0.07-1.092-1.198C3.88,38.15,3.887,38.15,5.021,38.15z"/>
	<path fill-rule="evenodd" clip-rule="evenodd" fill="#203C72" d="M24.091,7.692c0.089,0.594,0.066,0.625-0.43,0.625
		c-2.268,0-4.536,0.001-6.804,0c-0.128,0-0.278,0.029-0.379-0.033c-0.086-0.052-0.167-0.217-0.16-0.325
		c0.007-0.101,0.123-0.208,0.213-0.28c0.046-0.039,0.139-0.012,0.21-0.012c2.354-0.001,4.709-0.001,7.063,0
		C23.902,7.668,24,7.685,24.091,7.692z"/>
	<path fill-rule="evenodd" clip-rule="evenodd" fill="#203C72" d="M24.091,13.864c0.091,0.591,0.068,0.623-0.43,0.623
		c-2.282,0.001-4.564,0.005-6.847-0.003c-0.157,0-0.36-0.034-0.46-0.142c-0.165-0.178-0.024-0.462,0.216-0.498
		c0.042-0.006,0.086-0.003,0.129-0.003c2.397-0.001,4.794-0.003,7.191-0.002C23.958,13.839,24.028,13.856,24.091,13.864z"/>
	<path fill-rule="evenodd" clip-rule="evenodd" fill="#6DB844" d="M91.542,21.061c0.487,0,0.959-0.015,1.427,0.014
		c0.09,0.006,0.243,0.182,0.246,0.283c0.021,0.688,0.012,1.376,0.012,2.088c-0.613,0-1.139,0-1.685,0
		C91.542,22.667,91.542,21.902,91.542,21.061z"/>
	<path fill-rule="evenodd" clip-rule="evenodd" fill="#72BA44" d="M86.966,3.649c-0.997-0.226-1.996-0.444-2.987-0.689
		c-0.104-0.026-0.223-0.208-0.25-0.338c-0.041-0.204-0.011-0.426-0.011-0.766c1.117,0.292,2.182,0.571,3.248,0.85
		C86.966,3.085,86.966,3.392,86.966,3.649z"/>
	<path fill-rule="evenodd" clip-rule="evenodd" fill="#6DB844" d="M90.182,17.903c0.087-0.06,0.156-0.112,0.229-0.156
		c0.869-0.536,0.875-0.539,1.362,0.44c0.176,0.353,0.325,0.721,0.516,1.146c-0.351,0.22-0.679,0.426-1.011,0.635
		C90.911,19.276,90.558,18.611,90.182,17.903z"/>
	<path fill-rule="evenodd" clip-rule="evenodd" fill="#6DB844" d="M89.605,17.208c-0.812-0.506-1.522-0.947-2.261-1.406
		c0.079-0.146,0.173-0.316,0.292-0.536c0.795,0.253,1.491,0.709,2.094,1.318C89.805,16.659,89.651,16.999,89.605,17.208z"/>
</g>
</svg>
